<svg xmlns:xlink="http://www.w3.org/1999/xlink"  xmlns="http://www.w3.org/2000/svg" viewBox="-344.4408 90.4464 1385.97 320.0194" width="1385.97px" height="320.019px">
  <defs>
    <linearGradient id="g" x1="0" y1="0" x2="1" y2="1">
      <stop offset="0" stop-color="#4C566A"></stop>
      <stop offset="1" stop-color="#2E3440"></stop>
    </linearGradient>
  </defs>
  <rect width="1385.97" height="320" fill="url(#g)" x="-465.8" y="42.545" style="stroke-width: 1; transform-origin: 227.185px 202.545px;" rx="24" transform="matrix(1, -0.000014, 0, 1, 121.35923767, 47.91112986)"></rect>
  <g transform="matrix(1, -0.000014, 0, 1, -304.44216919, 130.45573246)" filter="url(#shadow)" style="transform-origin: 652.986px 120px;">
    <rect x="0" y="0" width="160" height="160" rx="28" fill="#ECEFF4"></rect>
    <rect x="10" y="10" width="140" height="140" rx="22" fill="#FFFFFF"></rect>
    <path d="M48 64 h40 a16 16 0 1 1 0 32 h-40 z M88 80 a8 8 0 1 0 0 16 a8 8 0 1 0 0 -16 z" fill="#2E3440"></path>
    <rect x="48" y="112" width="32" height="16" fill="#2E3440" rx="8"></rect>
    <path d="M118 58 l16 16 l-16 16" fill="none" stroke="#A3BE8C" stroke-width="6" stroke-linecap="round" stroke-linejoin="round"></path>
    <path d="M118 102 l16 16 l-16 16" fill="none" stroke="#88C0D0" stroke-width="6" stroke-linecap="round" stroke-linejoin="round"></path>
  </g>
  <g transform="matrix(1, -0.000014, 0, 1, -114.44213867, 174.45573743)" fill="#ECEFF4" style="transform-origin: 462.986px 76.0003px;">
    <text class="title" y="22" style="white-space: pre; font-family: Inter, system-ui, -apple-system, &quot;Segoe UI&quot;, Roboto, Ubuntu, Cantarell, &quot;Helvetica Neue&quot;, Arial, &quot;Noto Sans&quot;, &quot;Apple Color Emoji&quot;, &quot;Segoe UI Emoji&quot;; font-size: 44px; font-weight: 700; line-height: normal; perspective-origin: 75.4844px 2.375px;">Project Aliases</text>
    <text class="mono" y="44" style="white-space: pre; font-family: ui-monospace, SFMono-Regular, Menlo, Monaco, Consolas, &quot;Liberation Mono&quot;, &quot;Courier New&quot;, monospace; font-size: 28px; font-weight: 600; line-height: normal; perspective-origin: 126.43px 12.625px;"> </text>
    <text class="small" y="80" style="white-space: pre; font-family: Inter, system-ui, -apple-system, &quot;Segoe UI&quot;, Roboto, Ubuntu, Cantarell, &quot;Helvetica Neue&quot;, Arial; font-size: 18px; font-weight: 500; letter-spacing: 0.5px; line-height: normal; perspective-origin: 119.039px 21px;">Per-project shell aliases that load/unload automatically</text>
    <text style="white-space: pre; fill: rgb(51, 51, 51); font-family: Arial, sans-serif; font-size: 28px;" transform="matrix(1, 0.000014, 0, 1, 98.604263, -45.578846)"> </text>
    <text style="white-space: pre; fill: rgb(51, 51, 51); font-family: Arial, sans-serif; font-size: 28px;" transform="matrix(1, 0.000014, 0, 1, 388.457245, -55.780777)"> </text>
  </g>
  <g transform="matrix(1, -0.000014, 0, 1, -304.44216919, 348.45573246)" style="transform-origin: 652.986px -97.9997px;">
    <rect x="0" y="0" width="560" height="44" rx="10" fill="#3B4252" opacity="0.75"></rect>
    <circle cx="20" cy="22" r="6" fill="#A3BE8C"></circle>
    <text x="40" y="27" fill="#ECEFF4" class="mono" style="white-space: pre; font-family: ui-monospace, SFMono-Regular, Menlo, Monaco, Consolas, &quot;Liberation Mono&quot;, &quot;Courier New&quot;, monospace; font-size: 28px; font-weight: 600; line-height: normal; perspective-origin: 334.5px 8.375px;">➜  ~/dev/project $ run  # maps to npm run dev / flask run depending on folder</text>
  </g>
</svg>